PathFileType   4   (X/Y/Z)																																																																																																																							
DataRate	CameraRate	NumFrames	NumMarkers	Units	OrigDataRate	OrigDataStartFrame	OrigNumFrames																																																																																																																
120	120	4	37	mm	120	94	125																																																																																																																
Frame#	Time	Sternum	R.Acromium	L.Acromium	Top.Head	R.ASIS	L.ASIS	V.Sacral	R.Thigh.Upper	R.Thigh.Front	R.Thigh.Rear	R.Knee.Lat	R.Knee.Med	R.Shank.Upper	R.Shank.Front	R.Shank.Rear	R.Ankle.Lat	R.Ankle.Med	R.Heel	R.Midfoot.Sup	R.Midfoot.Lat	R.Toe.Lat	R.Toe.Med	R.Toe.Tip	L.Thigh.Upper	L.Thigh.Front	L.Thigh.Rear	L.Knee.Lat	L.Knee.Med	L.Shank.Upper	L.Shank.Front	L.Shank.Rear	L.Ankle.Lat	L.Ankle.Med	L.Heel	L.Midfoot.Sup	L.Midfoot.Lat	L.Toe.Lat	L.Toe.Med	L.Toe.Tip																																																																															
 	 	X1	Y1	Z1	X2	Y2	Z2	X3	Y3	Z3	X4	Y4	Z4	X5	Y5	Z5	X6	Y6	Z6	X7	Y7	Z7	X8	Y8	Z8	X9	Y9	Z9	X10	Y10	Z10	X11	Y11	Z11	X12	Y12	Z12	X13	Y13	Z13	X14	Y14	Z14	X15	Y15	Z15	X16	Y16	Z16	X17	Y17	Z17	X18	Y18	Z18	X19	Y19	Z19	X20	Y20	Z20	X21	Y21	Z21	X22	Y22	Z22	X23	Y23	Z23	X24	Y24	Z24	X25	Y25	Z25	X26	Y26	Z26	X27	Y27	Z27	X28	Y28	Z28	X29	Y29	Z29	X30	Y30	Z30	X31	Y31	Z31	X32	Y32	Z32	X33	Y33	Z33	X34	Y34	Z34	X35	Y35	Z35	X36	Y36	Z36	X37	Y37	Z37							
																																																																																																																							
	94	0.9	915.7515487	-0.001002095	1260.750204	831.6381368	-161.9453511	1315.207462	834.3853912	165.1979949	1315.33354	901.8905552	-10.08809499	1552.599752	982.9148896	-117.7896216	875.2413864	988.125963	119.399185	867.5056885	806.8975563	-5.611229398	889.042544	945.1174898	-173.4115572	543.4372809	1007.267008	-67.95180237	474.1417721	930.4929472	-162.9734513	409.9279212	884.5465305	-142.5943975	316.2552366	882.1983377	-8.355853302	297.8354428	843.9431713	-154.6508593	287.7817072	918.825663	-93.81404015	233.4257567	843.4089788	-165.0122006	190.9397473	785.7553863	-136.9768135	-122.7281011	797.352515	-37.22329306	-108.440024	712.8234848	-79.10633289	-144.3566382	865.1890445	-41.71858376	-143.7446254	858.0619375	-155.3841374	-164.192921	950.7479418	-165.0174344	-196.6459158	954.2501181	-50.15543807	-183.0225912	1018.652535	-83.79364801	-187.3688618	1027.671379	178.8034865	597.6817908	1125.69029	95.03600439	593.2872557	1069.496929	161.7547942	484.3176372	1104.743729	144.5366564	341.8188646	1105.630572	15.87918741	343.1120099	1059.322523	162.4477689	312.082545	1081.351336	100.5194763	240.9156427	1021.938043	174.5177999	276.0674946	895.0824643	136.4325857	-51.3870117	909.9238316	34.31683281	-29.52474207	810.2474311	76.11439987	-43.26870673	984.2939062	48.15109198	-98.44726894	965.8204249	152.6198727	-92.28193155	1021.587912	163.716336	-136.8491283	1038.704998	55.50675189	-142.5843784	1088.417035	82.30973808	-158.2484642
	95	0.90833	924.2235813	-0.001002095	1260.248431	840.1585339	-161.9453511	1314.780319	842.9058991	165.1979949	1314.903959	910.6216133	-10.08809499	1552.110165	991.0727796	-117.7896216	874.7444101	996.2815337	119.399185	867.0071504	815.0595915	-5.611229398	888.5983338	950.0201676	-173.4115572	542.3019186	1011.250321	-67.95180237	472.1927295	933.6360039	-162.9734513	408.9970592	886.4581079	-142.5943975	315.9385229	883.8671754	-8.355853302	297.5513023	845.7230009	-154.6508593	287.8414097	920.1505953	-93.81404015	232.8642316	844.382989	-165.0122006	191.0072478	784.1213109	-136.9768135	-122.1699959	795.8369314	-37.22329306	-107.9789151	711.1131456	-79.10633289	-143.5688107	863.4799152	-41.71858376	-143.4922946	856.2809862	-155.3841374	-163.9154155	948.8523611	-165.0174344	-196.6939574	952.4023953	-50.15543807	-183.0830254	1016.789139	-83.79364801	-187.6556131	1037.209849	178.8034865	598.2150239	1135.258648	95.03600439	594.5473482	1079.874761	161.7547942	485.1640921	1116.177117	144.5366564	342.9305655	1117.054348	15.87918741	344.2302506	1073.819421	162.4477689	312.1166401	1099.549216	100.5194763	242.2025913	1038.374628	174.5177999	274.1910565	928.8619661	136.4325857	-59.46410732	942.5366818	34.31683281	-36.85377415	843.7046209	76.11439987	-56.10638545	1020.575635	48.15109198	-101.4218765	1001.785019	152.6198727	-96.3039034	1059.967746	163.716336	-137.6683556	1077.379951	55.50675189	-142.4331074	1127.893337	82.30973808	-155.2802048
	96	0.91667	932.6871314	-0.001002095	1259.65195	848.6630824	-161.9453511	1314.246988	851.4105397	165.1979949	1314.368564	919.3044688	-10.08809499	1551.523823	999.2546907	-117.7896216	874.1162293	1004.458934	119.399185	866.3759349	823.2496076	-5.611229398	888.0727436	955.0119532	-173.4115572	541.1217118	1015.340442	-67.95180237	470.2351577	936.9242356	-162.9734513	408.0372994	888.560032	-142.5943975	315.5897528	885.7341493	-8.355853302	297.2371726	847.6707286	-154.6508593	287.8783417	921.6175781	-93.81404015	232.2562204	845.4889599	-165.0122006	191.059488	782.5070186	-136.9768135	-121.5820494	794.3455636	-37.22329306	-107.4933521	709.4147512	-79.10633289	-142.7215991	861.7806537	-41.71858376	-143.2412932	854.5018643	-155.3841374	-163.6360884	946.9442684	-165.0174344	-196.7766102	950.5475349	-50.15543807	-183.1796736	1014.915893	-83.79364801	-188.0041711	1046.486705	178.8034865	598.4681274	1144.555955	95.03600439	595.3955101	1089.83686	161.7547942	485.6781812	1127.001665	144.5366564	343.6675676	1127.870993	15.87918741	344.972552	1087.847758	162.4477689	311.9742901	1117.25182	100.5194763	243.5243249	1054.465734	174.5177999	272.2210052	962.8154008	136.4325857	-66.77605674	975.2708522	34.31683281	-43.47183505	877.6010562	76.11439987	-68.04706455	1056.674145	48.15109198	-103.6796056	1037.633072	152.6198727	-99.59078943	1097.978605	163.716336	-137.7308499	1115.624103	55.50675189	-141.541907	1166.761238	82.30973808	-151.6237475
	97	0.925	941.151011	-0.001002095	1258.965523	857.1608683	-161.9453511	1313.612709	859.9084005	165.1979949	1313.732579	927.9495312	-10.08809499	1550.845647	1007.467595	-117.7896216	873.3619435	1012.665147	119.399185	865.617154	831.4746397	-5.611229398	887.4705692	960.1087072	-173.4115572	539.8992757	1019.55648	-67.95180237	468.2725176	940.3775401	-162.9734513	407.0485798	890.874443	-142.5943975	315.2058423	887.8219509	-8.355853302	296.8895898	849.8055627	-154.6508593	287.891327	923.2427904	-93.81404015	231.5980725	846.7421474	-165.0122006	191.096358	780.9155662	-136.9768135	-120.9586324	792.8819271	-37.22329306	-106.978334	707.7316859	-79.10633289	-141.8095956	860.093933	-41.71858376	-142.9860307	852.7273031	-155.3841374	-163.3492626	945.0260022	-165.0174344	-196.8879328	948.6878424	-50.15543807	-183.3066538	1013.034808	-83.79364801	-188.4085547	1055.52416	178.8034865	598.4500703	1153.60699	95.03600439	595.846741	1099.413508	161.7547942	485.868842	1137.257397	144.5366564	344.0376844	1138.12047	15.87918741	345.3468136	1101.420922	162.4477689	311.6752074	1134.437626	100.5194763	244.8927709	1070.20896	174.5177999	270.1963378	996.7885862	136.4325857	-73.21047679	1007.982047	34.31683281	-49.27449036	911.7580115	76.11439987	-78.94266767	1092.449997	48.15109198	-105.158225	1073.221092	152.6198727	-102.0711397	1135.479284	163.716336	-137.0020024	1153.299994	55.50675189	-139.8847185	1204.894534	82.30973808	-147.2775194
